<?xml version="1.0" encoding="UTF-8" ?>
<svg version="1.1" width="128" height="192" xmlns="http://www.w3.org/2000/svg" shape-rendering="crispEdges">
<rect x="0" y="0" width="16" height="16" fill="#010A46" />
<rect x="16" y="0" width="16" height="16" fill="#011450" />
<rect x="32" y="0" width="16" height="16" fill="#011E5A" />
<rect x="48" y="0" width="16" height="16" fill="#012864" />
<rect x="64" y="0" width="16" height="16" fill="#01326E" />
<rect x="80" y="0" width="16" height="16" fill="#013C78" />
<rect x="96" y="0" width="16" height="16" fill="#014682" />
<rect x="112" y="0" width="16" height="16" fill="#01508C" />
<rect x="0" y="16" width="16" height="16" fill="#01579B" />
<rect x="16" y="16" width="16" height="16" fill="#0277BD" />
<rect x="32" y="16" width="16" height="16" fill="#0288D1" />
<rect x="48" y="16" width="16" height="16" fill="#039BE5" />
<rect x="64" y="16" width="16" height="16" fill="#03A9F4" />
<rect x="80" y="16" width="16" height="16" fill="#29B6F6" />
<rect x="96" y="16" width="16" height="16" fill="#4FC3F7" />
<rect x="112" y="16" width="16" height="16" fill="#81D4FA" />
<rect x="0" y="32" width="16" height="16" fill="#72D572" />
<rect x="16" y="32" width="16" height="16" fill="#42BD41" />
<rect x="32" y="32" width="16" height="16" fill="#2BAF2B" />
<rect x="48" y="32" width="16" height="16" fill="#259B24" />
<rect x="64" y="32" width="16" height="16" fill="#0A8F08" />
<rect x="80" y="32" width="16" height="16" fill="#0A7E07" />
<rect x="96" y="32" width="16" height="16" fill="#056F00" />
<rect x="112" y="32" width="16" height="16" fill="#0D5302" />
<rect x="0" y="48" width="16" height="16" fill="#FFF59D" />
<rect x="16" y="48" width="16" height="16" fill="#FFF176" />
<rect x="32" y="48" width="16" height="16" fill="#FFEE58" />
<rect x="48" y="48" width="16" height="16" fill="#FFEB3B" />
<rect x="64" y="48" width="16" height="16" fill="#FDD835" />
<rect x="80" y="48" width="16" height="16" fill="#FFCA28" />
<rect x="96" y="48" width="16" height="16" fill="#FFC107" />
<rect x="112" y="48" width="16" height="16" fill="#FFB300" />
<rect x="0" y="64" width="16" height="16" fill="#BCAAA4" />
<rect x="16" y="64" width="16" height="16" fill="#A1887F" />
<rect x="32" y="64" width="16" height="16" fill="#8D6E63" />
<rect x="48" y="64" width="16" height="16" fill="#795548" />
<rect x="64" y="64" width="16" height="16" fill="#6D4C41" />
<rect x="80" y="64" width="16" height="16" fill="#5D4037" />
<rect x="96" y="64" width="16" height="16" fill="#4E342E" />
<rect x="112" y="64" width="16" height="16" fill="#3E2723" />
<rect x="0" y="80" width="128" height="1" fill="#000000" />
<rect x="0" y="81" width="1" height="15" fill="#000000" />
<rect x="1" y="81" width="14" height="14" fill="#EEEEEE" />
<rect x="15" y="81" width="2" height="15" fill="#000000" />
<rect x="17" y="81" width="14" height="14" fill="#E0E0E0" />
<rect x="31" y="81" width="2" height="15" fill="#000000" />
<rect x="33" y="81" width="14" height="14" fill="#BDBDBD" />
<rect x="47" y="81" width="2" height="15" fill="#000000" />
<rect x="49" y="81" width="14" height="14" fill="#9E9E9E" />
<rect x="63" y="81" width="2" height="15" fill="#000000" />
<rect x="65" y="81" width="14" height="14" fill="#757575" />
<rect x="79" y="81" width="2" height="15" fill="#000000" />
<rect x="81" y="81" width="14" height="14" fill="#616161" />
<rect x="95" y="81" width="2" height="15" fill="#000000" />
<rect x="97" y="81" width="14" height="14" fill="#424242" />
<rect x="111" y="81" width="2" height="15" fill="#000000" />
<rect x="113" y="81" width="14" height="14" fill="#212121" />
<rect x="127" y="81" width="1" height="15" fill="#000000" />
<rect x="1" y="95" width="14" height="1" fill="#000000" />
<rect x="17" y="95" width="14" height="1" fill="#000000" />
<rect x="33" y="95" width="14" height="1" fill="#000000" />
<rect x="49" y="95" width="14" height="1" fill="#000000" />
<rect x="65" y="95" width="14" height="1" fill="#000000" />
<rect x="81" y="95" width="14" height="1" fill="#000000" />
<rect x="97" y="95" width="14" height="1" fill="#000000" />
<rect x="113" y="95" width="14" height="1" fill="#000000" />
<rect x="0" y="96" width="16" height="16" fill="#EEEEEE" />
<rect x="16" y="96" width="16" height="16" fill="#E0E0E0" />
<rect x="32" y="96" width="16" height="16" fill="#BDBDBD" />
<rect x="48" y="96" width="16" height="16" fill="#9E9E9E" />
<rect x="64" y="96" width="16" height="16" fill="#757575" />
<rect x="80" y="96" width="16" height="16" fill="#616161" />
<rect x="96" y="96" width="16" height="16" fill="#424242" />
<rect x="112" y="96" width="16" height="16" fill="#212121" />
<rect x="0" y="112" width="16" height="16" fill="#B0120A" />
<rect x="16" y="112" width="16" height="16" fill="#C41411" />
<rect x="32" y="112" width="16" height="16" fill="#D01716" />
<rect x="48" y="112" width="16" height="16" fill="#DD191D" />
<rect x="64" y="112" width="16" height="16" fill="#E51C23" />
<rect x="80" y="112" width="16" height="16" fill="#E84E40" />
<rect x="96" y="112" width="16" height="16" fill="#F36C60" />
<rect x="112" y="112" width="16" height="16" fill="#F69988" />
<rect x="6" y="129" width="4" height="14" fill="#C5E1A5" />
<rect x="22" y="129" width="4" height="14" fill="#AED581" />
<rect x="38" y="129" width="4" height="14" fill="#9CCC65" />
<rect x="54" y="129" width="4" height="14" fill="#8BC34A" />
<rect x="70" y="129" width="4" height="14" fill="#7CB342" />
<rect x="86" y="129" width="4" height="14" fill="#689F38" />
<rect x="102" y="129" width="4" height="14" fill="#558B2F" />
<rect x="118" y="129" width="4" height="14" fill="#33691E" />
<rect x="4" y="130" width="2" height="12" fill="#C5E1A5" />
<rect x="10" y="130" width="2" height="12" fill="#C5E1A5" />
<rect x="20" y="130" width="2" height="12" fill="#AED581" />
<rect x="26" y="130" width="2" height="12" fill="#AED581" />
<rect x="36" y="130" width="2" height="12" fill="#9CCC65" />
<rect x="42" y="130" width="2" height="12" fill="#9CCC65" />
<rect x="52" y="130" width="2" height="12" fill="#8BC34A" />
<rect x="58" y="130" width="2" height="12" fill="#8BC34A" />
<rect x="68" y="130" width="2" height="12" fill="#7CB342" />
<rect x="74" y="130" width="2" height="12" fill="#7CB342" />
<rect x="84" y="130" width="2" height="12" fill="#689F38" />
<rect x="90" y="130" width="2" height="12" fill="#689F38" />
<rect x="100" y="130" width="2" height="12" fill="#558B2F" />
<rect x="106" y="130" width="2" height="12" fill="#558B2F" />
<rect x="116" y="130" width="2" height="12" fill="#33691E" />
<rect x="122" y="130" width="2" height="12" fill="#33691E" />
<rect x="3" y="131" width="1" height="10" fill="#C5E1A5" />
<rect x="12" y="131" width="1" height="10" fill="#C5E1A5" />
<rect x="19" y="131" width="1" height="10" fill="#AED581" />
<rect x="28" y="131" width="1" height="10" fill="#AED581" />
<rect x="35" y="131" width="1" height="10" fill="#9CCC65" />
<rect x="44" y="131" width="1" height="10" fill="#9CCC65" />
<rect x="51" y="131" width="1" height="10" fill="#8BC34A" />
<rect x="60" y="131" width="1" height="10" fill="#8BC34A" />
<rect x="67" y="131" width="1" height="10" fill="#7CB342" />
<rect x="76" y="131" width="1" height="10" fill="#7CB342" />
<rect x="83" y="131" width="1" height="10" fill="#689F38" />
<rect x="92" y="131" width="1" height="10" fill="#689F38" />
<rect x="99" y="131" width="1" height="10" fill="#558B2F" />
<rect x="108" y="131" width="1" height="10" fill="#558B2F" />
<rect x="115" y="131" width="1" height="10" fill="#33691E" />
<rect x="124" y="131" width="1" height="10" fill="#33691E" />
<rect x="2" y="132" width="1" height="8" fill="#C5E1A5" />
<rect x="13" y="132" width="1" height="8" fill="#C5E1A5" />
<rect x="18" y="132" width="1" height="8" fill="#AED581" />
<rect x="29" y="132" width="1" height="8" fill="#AED581" />
<rect x="34" y="132" width="1" height="8" fill="#9CCC65" />
<rect x="45" y="132" width="1" height="8" fill="#9CCC65" />
<rect x="50" y="132" width="1" height="8" fill="#8BC34A" />
<rect x="61" y="132" width="1" height="8" fill="#8BC34A" />
<rect x="66" y="132" width="1" height="8" fill="#7CB342" />
<rect x="77" y="132" width="1" height="8" fill="#7CB342" />
<rect x="82" y="132" width="1" height="8" fill="#689F38" />
<rect x="93" y="132" width="1" height="8" fill="#689F38" />
<rect x="98" y="132" width="1" height="8" fill="#558B2F" />
<rect x="109" y="132" width="1" height="8" fill="#558B2F" />
<rect x="114" y="132" width="1" height="8" fill="#33691E" />
<rect x="125" y="132" width="1" height="8" fill="#33691E" />
<rect x="1" y="134" width="1" height="4" fill="#C5E1A5" />
<rect x="14" y="134" width="1" height="4" fill="#C5E1A5" />
<rect x="17" y="134" width="1" height="4" fill="#AED581" />
<rect x="30" y="134" width="1" height="4" fill="#AED581" />
<rect x="33" y="134" width="1" height="4" fill="#9CCC65" />
<rect x="46" y="134" width="1" height="4" fill="#9CCC65" />
<rect x="49" y="134" width="1" height="4" fill="#8BC34A" />
<rect x="62" y="134" width="1" height="4" fill="#8BC34A" />
<rect x="65" y="134" width="1" height="4" fill="#7CB342" />
<rect x="78" y="134" width="1" height="4" fill="#7CB342" />
<rect x="81" y="134" width="1" height="4" fill="#689F38" />
<rect x="94" y="134" width="1" height="4" fill="#689F38" />
<rect x="97" y="134" width="1" height="4" fill="#558B2F" />
<rect x="110" y="134" width="1" height="4" fill="#558B2F" />
<rect x="113" y="134" width="1" height="4" fill="#33691E" />
<rect x="126" y="134" width="1" height="4" fill="#33691E" />
<rect x="6" y="145" width="4" height="1" fill="#BCAAA4" />
<rect x="22" y="145" width="4" height="1" fill="#A1887F" />
<rect x="38" y="145" width="4" height="1" fill="#8D6E63" />
<rect x="54" y="145" width="4" height="1" fill="#795548" />
<rect x="70" y="145" width="4" height="1" fill="#6D4C41" />
<rect x="86" y="145" width="4" height="1" fill="#5D4037" />
<rect x="102" y="145" width="4" height="1" fill="#4E342E" />
<rect x="118" y="145" width="4" height="1" fill="#3E2723" />
<rect x="4" y="146" width="2" height="1" fill="#BCAAA4" />
<rect x="6" y="146" width="4" height="1" fill="#EEEEEE" />
<rect x="10" y="146" width="2" height="1" fill="#BCAAA4" />
<rect x="20" y="146" width="2" height="1" fill="#A1887F" />
<rect x="22" y="146" width="4" height="1" fill="#E0E0E0" />
<rect x="26" y="146" width="2" height="1" fill="#A1887F" />
<rect x="36" y="146" width="2" height="1" fill="#8D6E63" />
<rect x="38" y="146" width="4" height="1" fill="#BDBDBD" />
<rect x="42" y="146" width="2" height="1" fill="#8D6E63" />
<rect x="52" y="146" width="2" height="1" fill="#795548" />
<rect x="54" y="146" width="4" height="1" fill="#9E9E9E" />
<rect x="58" y="146" width="2" height="1" fill="#795548" />
<rect x="68" y="146" width="2" height="1" fill="#6D4C41" />
<rect x="70" y="146" width="4" height="1" fill="#757575" />
<rect x="74" y="146" width="2" height="1" fill="#6D4C41" />
<rect x="84" y="146" width="2" height="1" fill="#5D4037" />
<rect x="86" y="146" width="4" height="1" fill="#616161" />
<rect x="90" y="146" width="2" height="1" fill="#5D4037" />
<rect x="100" y="146" width="2" height="1" fill="#4E342E" />
<rect x="102" y="146" width="4" height="1" fill="#424242" />
<rect x="106" y="146" width="2" height="1" fill="#4E342E" />
<rect x="116" y="146" width="2" height="1" fill="#3E2723" />
<rect x="118" y="146" width="4" height="1" fill="#212121" />
<rect x="122" y="146" width="2" height="1" fill="#3E2723" />
<rect x="3" y="147" width="1" height="1" fill="#BCAAA4" />
<rect x="4" y="147" width="2" height="1" fill="#EEEEEE" />
<rect x="6" y="147" width="4" height="10" fill="#BCAAA4" />
<rect x="10" y="147" width="2" height="1" fill="#EEEEEE" />
<rect x="12" y="147" width="1" height="1" fill="#BCAAA4" />
<rect x="19" y="147" width="1" height="1" fill="#A1887F" />
<rect x="20" y="147" width="2" height="1" fill="#E0E0E0" />
<rect x="22" y="147" width="4" height="10" fill="#A1887F" />
<rect x="26" y="147" width="2" height="1" fill="#E0E0E0" />
<rect x="28" y="147" width="1" height="1" fill="#A1887F" />
<rect x="35" y="147" width="1" height="1" fill="#8D6E63" />
<rect x="36" y="147" width="2" height="1" fill="#BDBDBD" />
<rect x="38" y="147" width="4" height="10" fill="#8D6E63" />
<rect x="42" y="147" width="2" height="1" fill="#BDBDBD" />
<rect x="44" y="147" width="1" height="1" fill="#8D6E63" />
<rect x="51" y="147" width="1" height="1" fill="#795548" />
<rect x="52" y="147" width="2" height="1" fill="#9E9E9E" />
<rect x="54" y="147" width="4" height="10" fill="#795548" />
<rect x="58" y="147" width="2" height="1" fill="#9E9E9E" />
<rect x="60" y="147" width="1" height="1" fill="#795548" />
<rect x="67" y="147" width="1" height="1" fill="#6D4C41" />
<rect x="68" y="147" width="2" height="1" fill="#757575" />
<rect x="70" y="147" width="4" height="10" fill="#6D4C41" />
<rect x="74" y="147" width="2" height="1" fill="#757575" />
<rect x="76" y="147" width="1" height="1" fill="#6D4C41" />
<rect x="83" y="147" width="1" height="1" fill="#5D4037" />
<rect x="84" y="147" width="2" height="1" fill="#616161" />
<rect x="86" y="147" width="4" height="10" fill="#5D4037" />
<rect x="90" y="147" width="2" height="1" fill="#616161" />
<rect x="92" y="147" width="1" height="1" fill="#5D4037" />
<rect x="99" y="147" width="1" height="1" fill="#4E342E" />
<rect x="100" y="147" width="2" height="1" fill="#424242" />
<rect x="102" y="147" width="4" height="10" fill="#4E342E" />
<rect x="106" y="147" width="2" height="1" fill="#424242" />
<rect x="108" y="147" width="1" height="1" fill="#4E342E" />
<rect x="115" y="147" width="1" height="1" fill="#3E2723" />
<rect x="116" y="147" width="2" height="1" fill="#212121" />
<rect x="118" y="147" width="4" height="10" fill="#3E2723" />
<rect x="122" y="147" width="2" height="1" fill="#212121" />
<rect x="124" y="147" width="1" height="1" fill="#3E2723" />
<rect x="2" y="148" width="1" height="2" fill="#BCAAA4" />
<rect x="3" y="148" width="1" height="2" fill="#EEEEEE" />
<rect x="4" y="148" width="2" height="8" fill="#BCAAA4" />
<rect x="10" y="148" width="2" height="8" fill="#BCAAA4" />
<rect x="12" y="148" width="1" height="2" fill="#EEEEEE" />
<rect x="13" y="148" width="1" height="2" fill="#BCAAA4" />
<rect x="18" y="148" width="1" height="2" fill="#A1887F" />
<rect x="19" y="148" width="1" height="2" fill="#E0E0E0" />
<rect x="20" y="148" width="2" height="8" fill="#A1887F" />
<rect x="26" y="148" width="2" height="8" fill="#A1887F" />
<rect x="28" y="148" width="1" height="2" fill="#E0E0E0" />
<rect x="29" y="148" width="1" height="2" fill="#A1887F" />
<rect x="34" y="148" width="1" height="2" fill="#8D6E63" />
<rect x="35" y="148" width="1" height="2" fill="#BDBDBD" />
<rect x="36" y="148" width="2" height="8" fill="#8D6E63" />
<rect x="42" y="148" width="2" height="8" fill="#8D6E63" />
<rect x="44" y="148" width="1" height="2" fill="#BDBDBD" />
<rect x="45" y="148" width="1" height="2" fill="#8D6E63" />
<rect x="50" y="148" width="1" height="2" fill="#795548" />
<rect x="51" y="148" width="1" height="2" fill="#9E9E9E" />
<rect x="52" y="148" width="2" height="8" fill="#795548" />
<rect x="58" y="148" width="2" height="8" fill="#795548" />
<rect x="60" y="148" width="1" height="2" fill="#9E9E9E" />
<rect x="61" y="148" width="1" height="2" fill="#795548" />
<rect x="66" y="148" width="1" height="2" fill="#6D4C41" />
<rect x="67" y="148" width="1" height="2" fill="#757575" />
<rect x="68" y="148" width="2" height="8" fill="#6D4C41" />
<rect x="74" y="148" width="2" height="8" fill="#6D4C41" />
<rect x="76" y="148" width="1" height="2" fill="#757575" />
<rect x="77" y="148" width="1" height="2" fill="#6D4C41" />
<rect x="82" y="148" width="1" height="2" fill="#5D4037" />
<rect x="83" y="148" width="1" height="2" fill="#616161" />
<rect x="84" y="148" width="2" height="8" fill="#5D4037" />
<rect x="90" y="148" width="2" height="8" fill="#5D4037" />
<rect x="92" y="148" width="1" height="2" fill="#616161" />
<rect x="93" y="148" width="1" height="2" fill="#5D4037" />
<rect x="98" y="148" width="1" height="2" fill="#4E342E" />
<rect x="99" y="148" width="1" height="2" fill="#424242" />
<rect x="100" y="148" width="2" height="8" fill="#4E342E" />
<rect x="106" y="148" width="2" height="8" fill="#4E342E" />
<rect x="108" y="148" width="1" height="2" fill="#424242" />
<rect x="109" y="148" width="1" height="2" fill="#4E342E" />
<rect x="114" y="148" width="1" height="2" fill="#3E2723" />
<rect x="115" y="148" width="1" height="2" fill="#212121" />
<rect x="116" y="148" width="2" height="8" fill="#3E2723" />
<rect x="122" y="148" width="2" height="8" fill="#3E2723" />
<rect x="124" y="148" width="1" height="2" fill="#212121" />
<rect x="125" y="148" width="1" height="2" fill="#3E2723" />
<rect x="1" y="150" width="1" height="4" fill="#BCAAA4" />
<rect x="2" y="150" width="1" height="4" fill="#EEEEEE" />
<rect x="3" y="150" width="1" height="4" fill="#BCAAA4" />
<rect x="12" y="150" width="1" height="4" fill="#BCAAA4" />
<rect x="13" y="150" width="1" height="4" fill="#EEEEEE" />
<rect x="14" y="150" width="1" height="4" fill="#BCAAA4" />
<rect x="17" y="150" width="1" height="4" fill="#A1887F" />
<rect x="18" y="150" width="1" height="4" fill="#E0E0E0" />
<rect x="19" y="150" width="1" height="4" fill="#A1887F" />
<rect x="28" y="150" width="1" height="4" fill="#A1887F" />
<rect x="29" y="150" width="1" height="4" fill="#E0E0E0" />
<rect x="30" y="150" width="1" height="4" fill="#A1887F" />
<rect x="33" y="150" width="1" height="4" fill="#8D6E63" />
<rect x="34" y="150" width="1" height="4" fill="#BDBDBD" />
<rect x="35" y="150" width="1" height="4" fill="#8D6E63" />
<rect x="44" y="150" width="1" height="4" fill="#8D6E63" />
<rect x="45" y="150" width="1" height="4" fill="#BDBDBD" />
<rect x="46" y="150" width="1" height="4" fill="#8D6E63" />
<rect x="49" y="150" width="1" height="4" fill="#795548" />
<rect x="50" y="150" width="1" height="4" fill="#9E9E9E" />
<rect x="51" y="150" width="1" height="4" fill="#795548" />
<rect x="60" y="150" width="1" height="4" fill="#795548" />
<rect x="61" y="150" width="1" height="4" fill="#9E9E9E" />
<rect x="62" y="150" width="1" height="4" fill="#795548" />
<rect x="65" y="150" width="1" height="4" fill="#6D4C41" />
<rect x="66" y="150" width="1" height="4" fill="#757575" />
<rect x="67" y="150" width="1" height="4" fill="#6D4C41" />
<rect x="76" y="150" width="1" height="4" fill="#6D4C41" />
<rect x="77" y="150" width="1" height="4" fill="#757575" />
<rect x="78" y="150" width="1" height="4" fill="#6D4C41" />
<rect x="81" y="150" width="1" height="4" fill="#5D4037" />
<rect x="82" y="150" width="1" height="4" fill="#616161" />
<rect x="83" y="150" width="1" height="4" fill="#5D4037" />
<rect x="92" y="150" width="1" height="4" fill="#5D4037" />
<rect x="93" y="150" width="1" height="4" fill="#616161" />
<rect x="94" y="150" width="1" height="4" fill="#5D4037" />
<rect x="97" y="150" width="1" height="4" fill="#4E342E" />
<rect x="98" y="150" width="1" height="4" fill="#424242" />
<rect x="99" y="150" width="1" height="4" fill="#4E342E" />
<rect x="108" y="150" width="1" height="4" fill="#4E342E" />
<rect x="109" y="150" width="1" height="4" fill="#424242" />
<rect x="110" y="150" width="1" height="4" fill="#4E342E" />
<rect x="113" y="150" width="1" height="4" fill="#3E2723" />
<rect x="114" y="150" width="1" height="4" fill="#212121" />
<rect x="115" y="150" width="1" height="4" fill="#3E2723" />
<rect x="124" y="150" width="1" height="4" fill="#3E2723" />
<rect x="125" y="150" width="1" height="4" fill="#212121" />
<rect x="126" y="150" width="1" height="4" fill="#3E2723" />
<rect x="2" y="154" width="1" height="2" fill="#BCAAA4" />
<rect x="3" y="154" width="1" height="2" fill="#EEEEEE" />
<rect x="12" y="154" width="1" height="2" fill="#EEEEEE" />
<rect x="13" y="154" width="1" height="2" fill="#BCAAA4" />
<rect x="18" y="154" width="1" height="2" fill="#A1887F" />
<rect x="19" y="154" width="1" height="2" fill="#E0E0E0" />
<rect x="28" y="154" width="1" height="2" fill="#E0E0E0" />
<rect x="29" y="154" width="1" height="2" fill="#A1887F" />
<rect x="34" y="154" width="1" height="2" fill="#8D6E63" />
<rect x="35" y="154" width="1" height="2" fill="#BDBDBD" />
<rect x="44" y="154" width="1" height="2" fill="#BDBDBD" />
<rect x="45" y="154" width="1" height="2" fill="#8D6E63" />
<rect x="50" y="154" width="1" height="2" fill="#795548" />
<rect x="51" y="154" width="1" height="2" fill="#9E9E9E" />
<rect x="60" y="154" width="1" height="2" fill="#9E9E9E" />
<rect x="61" y="154" width="1" height="2" fill="#795548" />
<rect x="66" y="154" width="1" height="2" fill="#6D4C41" />
<rect x="67" y="154" width="1" height="2" fill="#757575" />
<rect x="76" y="154" width="1" height="2" fill="#757575" />
<rect x="77" y="154" width="1" height="2" fill="#6D4C41" />
<rect x="82" y="154" width="1" height="2" fill="#5D4037" />
<rect x="83" y="154" width="1" height="2" fill="#616161" />
<rect x="92" y="154" width="1" height="2" fill="#616161" />
<rect x="93" y="154" width="1" height="2" fill="#5D4037" />
<rect x="98" y="154" width="1" height="2" fill="#4E342E" />
<rect x="99" y="154" width="1" height="2" fill="#424242" />
<rect x="108" y="154" width="1" height="2" fill="#424242" />
<rect x="109" y="154" width="1" height="2" fill="#4E342E" />
<rect x="114" y="154" width="1" height="2" fill="#3E2723" />
<rect x="115" y="154" width="1" height="2" fill="#212121" />
<rect x="124" y="154" width="1" height="2" fill="#212121" />
<rect x="125" y="154" width="1" height="2" fill="#3E2723" />
<rect x="3" y="156" width="1" height="1" fill="#BCAAA4" />
<rect x="4" y="156" width="2" height="1" fill="#EEEEEE" />
<rect x="10" y="156" width="2" height="1" fill="#EEEEEE" />
<rect x="12" y="156" width="1" height="1" fill="#BCAAA4" />
<rect x="19" y="156" width="1" height="1" fill="#A1887F" />
<rect x="20" y="156" width="2" height="1" fill="#E0E0E0" />
<rect x="26" y="156" width="2" height="1" fill="#E0E0E0" />
<rect x="28" y="156" width="1" height="1" fill="#A1887F" />
<rect x="35" y="156" width="1" height="1" fill="#8D6E63" />
<rect x="36" y="156" width="2" height="1" fill="#BDBDBD" />
<rect x="42" y="156" width="2" height="1" fill="#BDBDBD" />
<rect x="44" y="156" width="1" height="1" fill="#8D6E63" />
<rect x="51" y="156" width="1" height="1" fill="#795548" />
<rect x="52" y="156" width="2" height="1" fill="#9E9E9E" />
<rect x="58" y="156" width="2" height="1" fill="#9E9E9E" />
<rect x="60" y="156" width="1" height="1" fill="#795548" />
<rect x="67" y="156" width="1" height="1" fill="#6D4C41" />
<rect x="68" y="156" width="2" height="1" fill="#757575" />
<rect x="74" y="156" width="2" height="1" fill="#757575" />
<rect x="76" y="156" width="1" height="1" fill="#6D4C41" />
<rect x="83" y="156" width="1" height="1" fill="#5D4037" />
<rect x="84" y="156" width="2" height="1" fill="#616161" />
<rect x="90" y="156" width="2" height="1" fill="#616161" />
<rect x="92" y="156" width="1" height="1" fill="#5D4037" />
<rect x="99" y="156" width="1" height="1" fill="#4E342E" />
<rect x="100" y="156" width="2" height="1" fill="#424242" />
<rect x="106" y="156" width="2" height="1" fill="#424242" />
<rect x="108" y="156" width="1" height="1" fill="#4E342E" />
<rect x="115" y="156" width="1" height="1" fill="#3E2723" />
<rect x="116" y="156" width="2" height="1" fill="#212121" />
<rect x="122" y="156" width="2" height="1" fill="#212121" />
<rect x="124" y="156" width="1" height="1" fill="#3E2723" />
<rect x="4" y="157" width="2" height="1" fill="#BCAAA4" />
<rect x="6" y="157" width="4" height="1" fill="#EEEEEE" />
<rect x="10" y="157" width="2" height="1" fill="#BCAAA4" />
<rect x="20" y="157" width="2" height="1" fill="#A1887F" />
<rect x="22" y="157" width="4" height="1" fill="#E0E0E0" />
<rect x="26" y="157" width="2" height="1" fill="#A1887F" />
<rect x="36" y="157" width="2" height="1" fill="#8D6E63" />
<rect x="38" y="157" width="4" height="1" fill="#BDBDBD" />
<rect x="42" y="157" width="2" height="1" fill="#8D6E63" />
<rect x="52" y="157" width="2" height="1" fill="#795548" />
<rect x="54" y="157" width="4" height="1" fill="#9E9E9E" />
<rect x="58" y="157" width="2" height="1" fill="#795548" />
<rect x="68" y="157" width="2" height="1" fill="#6D4C41" />
<rect x="70" y="157" width="4" height="1" fill="#757575" />
<rect x="74" y="157" width="2" height="1" fill="#6D4C41" />
<rect x="84" y="157" width="2" height="1" fill="#5D4037" />
<rect x="86" y="157" width="4" height="1" fill="#616161" />
<rect x="90" y="157" width="2" height="1" fill="#5D4037" />
<rect x="100" y="157" width="2" height="1" fill="#4E342E" />
<rect x="102" y="157" width="4" height="1" fill="#424242" />
<rect x="106" y="157" width="2" height="1" fill="#4E342E" />
<rect x="116" y="157" width="2" height="1" fill="#3E2723" />
<rect x="118" y="157" width="4" height="1" fill="#212121" />
<rect x="122" y="157" width="2" height="1" fill="#3E2723" />
<rect x="6" y="158" width="4" height="1" fill="#BCAAA4" />
<rect x="22" y="158" width="4" height="1" fill="#A1887F" />
<rect x="38" y="158" width="4" height="1" fill="#8D6E63" />
<rect x="54" y="158" width="4" height="1" fill="#795548" />
<rect x="70" y="158" width="4" height="1" fill="#6D4C41" />
<rect x="86" y="158" width="4" height="1" fill="#5D4037" />
<rect x="102" y="158" width="4" height="1" fill="#4E342E" />
<rect x="118" y="158" width="4" height="1" fill="#3E2723" />
<rect x="20" y="160" width="6" height="14" fill="#424242" />
<rect x="69" y="160" width="5" height="15" fill="#424242" />
<rect x="2" y="161" width="6" height="11" fill="#424242" />
<rect x="8" y="161" width="1" height="1" fill="#000000" />
<rect x="19" y="161" width="1" height="13" fill="#424242" />
<rect x="26" y="161" width="2" height="13" fill="#424242" />
<rect x="35" y="161" width="8" height="13" fill="#424242" />
<rect x="52" y="161" width="6" height="12" fill="#424242" />
<rect x="68" y="161" width="1" height="13" fill="#424242" />
<rect x="74" y="161" width="2" height="15" fill="#424242" />
<rect x="85" y="161" width="7" height="1" fill="#424242" />
<rect x="100" y="161" width="2" height="1" fill="#000000" />
<rect x="102" y="161" width="8" height="13" fill="#424242" />
<rect x="115" y="161" width="9" height="12" fill="#424242" />
<rect x="1" y="162" width="1" height="7" fill="#424242" />
<rect x="8" y="162" width="3" height="10" fill="#424242" />
<rect x="11" y="162" width="1" height="1" fill="#000000" />
<rect x="18" y="162" width="1" height="11" fill="#424242" />
<rect x="28" y="162" width="2" height="11" fill="#424242" />
<rect x="34" y="162" width="1" height="12" fill="#424242" />
<rect x="43" y="162" width="2" height="11" fill="#424242" />
<rect x="51" y="162" width="1" height="11" fill="#424242" />
<rect x="58" y="162" width="1" height="13" fill="#424242" />
<rect x="67" y="162" width="1" height="11" fill="#424242" />
<rect x="76" y="162" width="1" height="14" fill="#424242" />
<rect x="84" y="162" width="2" height="1" fill="#000000" />
<rect x="86" y="162" width="8" height="12" fill="#424242" />
<rect x="99" y="162" width="3" height="10" fill="#424242" />
<rect x="110" y="162" width="1" height="12" fill="#424242" />
<rect x="114" y="162" width="1" height="12" fill="#424242" />
<rect x="124" y="162" width="3" height="9" fill="#424242" />
<rect x="11" y="163" width="1" height="9" fill="#424242" />
<rect x="12" y="163" width="1" height="1" fill="#000000" />
<rect x="17" y="163" width="1" height="9" fill="#424242" />
<rect x="30" y="163" width="1" height="9" fill="#424242" />
<rect x="45" y="163" width="1" height="9" fill="#424242" />
<rect x="50" y="163" width="1" height="10" fill="#424242" />
<rect x="59" y="163" width="2" height="11" fill="#424242" />
<rect x="66" y="163" width="1" height="9" fill="#424242" />
<rect x="77" y="163" width="1" height="12" fill="#424242" />
<rect x="83" y="163" width="2" height="2" fill="#000000" />
<rect x="85" y="163" width="1" height="10" fill="#424242" />
<rect x="98" y="163" width="1" height="2" fill="#000000" />
<rect x="113" y="163" width="1" height="11" fill="#424242" />
<rect x="12" y="164" width="1" height="7" fill="#424242" />
<rect x="13" y="164" width="1" height="6" fill="#000000" />
<rect x="31" y="164" width="1" height="7" fill="#424242" />
<rect x="46" y="164" width="1" height="7" fill="#424242" />
<rect x="49" y="164" width="1" height="8" fill="#424242" />
<rect x="61" y="164" width="1" height="9" fill="#424242" />
<rect x="65" y="164" width="1" height="1" fill="#000000" />
<rect x="78" y="164" width="1" height="10" fill="#424242" />
<rect x="82" y="164" width="1" height="9" fill="#000000" />
<rect x="94" y="164" width="1" height="9" fill="#424242" />
<rect x="97" y="164" width="1" height="5" fill="#000000" />
<rect x="127" y="164" width="1" height="4" fill="#424242" />
<rect x="62" y="165" width="1" height="6" fill="#424242" />
<rect x="65" y="165" width="1" height="5" fill="#424242" />
<rect x="83" y="165" width="1" height="9" fill="#000000" />
<rect x="84" y="165" width="1" height="7" fill="#424242" />
<rect x="98" y="165" width="1" height="7" fill="#424242" />
<rect x="111" y="165" width="1" height="2" fill="#000000" />
<rect x="112" y="165" width="1" height="8" fill="#424242" />
<rect x="14" y="166" width="1" height="2" fill="#000000" />
<rect x="16" y="166" width="1" height="6" fill="#000000" />
<rect x="33" y="166" width="1" height="7" fill="#424242" />
<rect x="64" y="166" width="1" height="5" fill="#000000" />
<rect x="79" y="166" width="1" height="7" fill="#424242" />
<rect x="96" y="166" width="1" height="9" fill="#000000" />
<rect x="81" y="167" width="1" height="5" fill="#000000" />
<rect x="111" y="167" width="1" height="6" fill="#424242" />
<rect x="1" y="169" width="1" height="2" fill="#000000" />
<rect x="97" y="169" width="1" height="2" fill="#424242" />
<rect x="65" y="170" width="1" height="2" fill="#000000" />
<rect x="12" y="171" width="1" height="2" fill="#000000" />
<rect x="97" y="171" width="1" height="5" fill="#000000" />
<rect x="124" y="171" width="2" height="1" fill="#424242" />
<rect x="2" y="172" width="2" height="1" fill="#000000" />
<rect x="4" y="172" width="6" height="1" fill="#424242" />
<rect x="10" y="172" width="2" height="2" fill="#000000" />
<rect x="17" y="172" width="1" height="3" fill="#000000" />
<rect x="45" y="172" width="1" height="1" fill="#000000" />
<rect x="49" y="172" width="1" height="3" fill="#000000" />
<rect x="66" y="172" width="1" height="1" fill="#000000" />
<rect x="84" y="172" width="1" height="3" fill="#000000" />
<rect x="98" y="172" width="2" height="4" fill="#000000" />
<rect x="100" y="172" width="2" height="1" fill="#424242" />
<rect x="124" y="172" width="1" height="1" fill="#424242" />
<rect x="125" y="172" width="1" height="2" fill="#000000" />
<rect x="3" y="173" width="7" height="1" fill="#000000" />
<rect x="18" y="173" width="1" height="3" fill="#000000" />
<rect x="28" y="173" width="1" height="1" fill="#424242" />
<rect x="43" y="173" width="2" height="1" fill="#000000" />
<rect x="50" y="173" width="3" height="3" fill="#000000" />
<rect x="53" y="173" width="5" height="1" fill="#424242" />
<rect x="61" y="173" width="1" height="2" fill="#000000" />
<rect x="67" y="173" width="1" height="1" fill="#000000" />
<rect x="85" y="173" width="1" height="3" fill="#000000" />
<rect x="100" y="173" width="1" height="3" fill="#000000" />
<rect x="101" y="173" width="1" height="1" fill="#424242" />
<rect x="111" y="173" width="1" height="2" fill="#000000" />
<rect x="115" y="173" width="6" height="1" fill="#424242" />
<rect x="121" y="173" width="4" height="2" fill="#000000" />
<rect x="4" y="174" width="4" height="1" fill="#000000" />
<rect x="19" y="174" width="4" height="2" fill="#000000" />
<rect x="23" y="174" width="4" height="1" fill="#424242" />
<rect x="27" y="174" width="1" height="1" fill="#000000" />
<rect x="35" y="174" width="9" height="1" fill="#000000" />
<rect x="53" y="174" width="3" height="2" fill="#000000" />
<rect x="56" y="174" width="2" height="1" fill="#424242" />
<rect x="59" y="174" width="1" height="1" fill="#424242" />
<rect x="60" y="174" width="1" height="2" fill="#000000" />
<rect x="68" y="174" width="1" height="1" fill="#000000" />
<rect x="86" y="174" width="2" height="2" fill="#000000" />
<rect x="88" y="174" width="5" height="1" fill="#424242" />
<rect x="101" y="174" width="4" height="2" fill="#000000" />
<rect x="105" y="174" width="5" height="1" fill="#424242" />
<rect x="110" y="174" width="1" height="1" fill="#000000" />
<rect x="113" y="174" width="8" height="1" fill="#000000" />
<rect x="23" y="175" width="4" height="1" fill="#000000" />
<rect x="36" y="175" width="5" height="1" fill="#000000" />
<rect x="56" y="175" width="4" height="1" fill="#000000" />
<rect x="69" y="175" width="1" height="1" fill="#000000" />
<rect x="70" y="175" width="4" height="1" fill="#424242" />
<rect x="88" y="175" width="3" height="1" fill="#000000" />
<rect x="105" y="175" width="4" height="1" fill="#000000" />
<rect x="115" y="175" width="8" height="1" fill="#000000" />
<rect x="0" y="176" width="2" height="4" fill="#6D4C41" />
<rect x="2" y="176" width="1" height="4" fill="#5D4037" />
<rect x="3" y="176" width="2" height="5" fill="#6D4C41" />
<rect x="5" y="176" width="1" height="5" fill="#5D4037" />
<rect x="6" y="176" width="2" height="6" fill="#6D4C41" />
<rect x="8" y="176" width="1" height="6" fill="#5D4037" />
<rect x="9" y="176" width="2" height="5" fill="#6D4C41" />
<rect x="11" y="176" width="1" height="5" fill="#5D4037" />
<rect x="12" y="176" width="2" height="5" fill="#6D4C41" />
<rect x="14" y="176" width="1" height="9" fill="#5D4037" />
<rect x="15" y="176" width="1" height="16" fill="#6D4C41" />
<rect x="0" y="180" width="1" height="8" fill="#6D4C41" />
<rect x="1" y="180" width="1" height="8" fill="#5D4037" />
<rect x="2" y="180" width="1" height="12" fill="#6D4C41" />
<rect x="3" y="181" width="1" height="7" fill="#6D4C41" />
<rect x="4" y="181" width="1" height="7" fill="#5D4037" />
<rect x="5" y="181" width="1" height="11" fill="#6D4C41" />
<rect x="9" y="181" width="1" height="2" fill="#6D4C41" />
<rect x="10" y="181" width="2" height="1" fill="#607D8B" />
<rect x="12" y="181" width="1" height="1" fill="#546E7A" />
<rect x="13" y="181" width="1" height="2" fill="#6D4C41" />
<rect x="6" y="182" width="1" height="6" fill="#6D4C41" />
<rect x="7" y="182" width="1" height="6" fill="#5D4037" />
<rect x="8" y="182" width="1" height="10" fill="#6D4C41" />
<rect x="10" y="182" width="1" height="1" fill="#607D8B" />
<rect x="11" y="182" width="1" height="1" fill="#5D4037" />
<rect x="12" y="182" width="1" height="1" fill="#455A64" />
<rect x="9" y="183" width="2" height="1" fill="#FFCA28" />
<rect x="11" y="183" width="2" height="3" fill="#FFA000" />
<rect x="13" y="183" width="1" height="4" fill="#FF8F00" />
<rect x="9" y="184" width="1" height="3" fill="#FFCA28" />
<rect x="10" y="184" width="1" height="3" fill="#FFA000" />
<rect x="14" y="185" width="1" height="7" fill="#6D4C41" />
<rect x="11" y="186" width="1" height="1" fill="#FFA000" />
<rect x="12" y="186" width="1" height="1" fill="#FF8F00" />
<rect x="9" y="187" width="1" height="1" fill="#6D4C41" />
<rect x="10" y="187" width="1" height="1" fill="#5D4037" />
<rect x="11" y="187" width="2" height="1" fill="#6D4C41" />
<rect x="13" y="187" width="1" height="1" fill="#5D4037" />
<rect x="0" y="188" width="1" height="4" fill="#5D4037" />
<rect x="1" y="188" width="1" height="4" fill="#6D4C41" />
<rect x="3" y="188" width="1" height="4" fill="#5D4037" />
<rect x="4" y="188" width="1" height="4" fill="#6D4C41" />
<rect x="6" y="188" width="1" height="4" fill="#5D4037" />
<rect x="7" y="188" width="1" height="4" fill="#6D4C41" />
<rect x="9" y="188" width="1" height="4" fill="#5D4037" />
<rect x="10" y="188" width="2" height="4" fill="#6D4C41" />
<rect x="12" y="188" width="1" height="4" fill="#5D4037" />
<rect x="13" y="188" width="1" height="4" fill="#6D4C41" />
</svg>