<?xml version="1.0" encoding="UTF-8" ?>
<svg version="1.1" width="128" height="96" xmlns="http://www.w3.org/2000/svg" shape-rendering="crispEdges">
<rect x="0" y="0" width="16" height="16" fill="#010A46" />
<rect x="16" y="0" width="16" height="16" fill="#011450" />
<rect x="32" y="0" width="16" height="16" fill="#011E5A" />
<rect x="48" y="0" width="16" height="16" fill="#012864" />
<rect x="64" y="0" width="16" height="16" fill="#01326E" />
<rect x="80" y="0" width="16" height="16" fill="#013C78" />
<rect x="96" y="0" width="16" height="16" fill="#014682" />
<rect x="112" y="0" width="16" height="16" fill="#01508C" />
<rect x="0" y="16" width="16" height="16" fill="#01579B" />
<rect x="16" y="16" width="16" height="16" fill="#0277BD" />
<rect x="32" y="16" width="16" height="16" fill="#0288D1" />
<rect x="48" y="16" width="16" height="16" fill="#039BE5" />
<rect x="64" y="16" width="16" height="16" fill="#03A9F4" />
<rect x="80" y="16" width="16" height="16" fill="#29B6F6" />
<rect x="96" y="16" width="16" height="16" fill="#4FC3F7" />
<rect x="112" y="16" width="16" height="16" fill="#81D4FA" />
<rect x="0" y="32" width="16" height="16" fill="#72D572" />
<rect x="16" y="32" width="16" height="16" fill="#42BD41" />
<rect x="32" y="32" width="16" height="16" fill="#2BAF2B" />
<rect x="48" y="32" width="16" height="16" fill="#259B24" />
<rect x="64" y="32" width="16" height="16" fill="#0A8F08" />
<rect x="80" y="32" width="16" height="16" fill="#0A7E07" />
<rect x="96" y="32" width="16" height="16" fill="#056F00" />
<rect x="112" y="32" width="16" height="16" fill="#0D5302" />
<rect x="0" y="48" width="16" height="16" fill="#FFF59D" />
<rect x="16" y="48" width="16" height="16" fill="#FFF176" />
<rect x="32" y="48" width="16" height="16" fill="#FFEE58" />
<rect x="48" y="48" width="16" height="16" fill="#FFEB3B" />
<rect x="64" y="48" width="16" height="16" fill="#FDD835" />
<rect x="80" y="48" width="16" height="16" fill="#FBC02D" />
<rect x="96" y="48" width="16" height="16" fill="#F9A825" />
<rect x="112" y="48" width="16" height="16" fill="#F57F17" />
<rect x="0" y="64" width="16" height="16" fill="#BCAAA4" />
<rect x="16" y="64" width="16" height="16" fill="#A1887F" />
<rect x="32" y="64" width="16" height="16" fill="#8D6E63" />
<rect x="48" y="64" width="16" height="16" fill="#795548" />
<rect x="64" y="64" width="16" height="16" fill="#6D4C41" />
<rect x="80" y="64" width="16" height="16" fill="#5D4037" />
<rect x="96" y="64" width="16" height="16" fill="#4E342E" />
<rect x="112" y="64" width="16" height="16" fill="#3E2723" />
<rect x="0" y="80" width="16" height="16" fill="#EEEEEE" />
<rect x="16" y="80" width="16" height="16" fill="#E0E0E0" />
<rect x="32" y="80" width="16" height="16" fill="#BDBDBD" />
<rect x="48" y="80" width="16" height="16" fill="#9E9E9E" />
<rect x="64" y="80" width="16" height="16" fill="#757575" />
<rect x="80" y="80" width="16" height="16" fill="#616161" />
<rect x="96" y="80" width="16" height="16" fill="#424242" />
<rect x="112" y="80" width="16" height="16" fill="#212121" />
</svg>