<?xml version="1.0" encoding="UTF-8" ?>
<svg version="1.1" width="16" height="16" xmlns="http://www.w3.org/2000/svg" shape-rendering="crispEdges">
<rect x="4" y="1" width="8" height="1" fill="#424242" />
<rect x="3" y="2" width="1" height="3" fill="#6D4C41" />
<rect x="4" y="2" width="1" height="3" fill="#5D4037" />
<rect x="5" y="2" width="1" height="3" fill="#4E342E" />
<rect x="6" y="2" width="1" height="3" fill="#5D4037" />
<rect x="7" y="2" width="1" height="3" fill="#4E342E" />
<rect x="8" y="2" width="1" height="3" fill="#5D4037" />
<rect x="9" y="2" width="1" height="3" fill="#4E342E" />
<rect x="10" y="2" width="1" height="3" fill="#5D4037" />
<rect x="11" y="2" width="1" height="3" fill="#4E342E" />
<rect x="12" y="2" width="1" height="3" fill="#5D4037" />
<rect x="2" y="5" width="12" height="1" fill="#424242" />
<rect x="2" y="6" width="1" height="4" fill="#6D4C41" />
<rect x="3" y="6" width="1" height="4" fill="#5D4037" />
<rect x="4" y="6" width="1" height="4" fill="#4E342E" />
<rect x="5" y="6" width="1" height="4" fill="#5D4037" />
<rect x="6" y="6" width="1" height="4" fill="#4E342E" />
<rect x="7" y="6" width="1" height="4" fill="#5D4037" />
<rect x="8" y="6" width="1" height="4" fill="#4E342E" />
<rect x="9" y="6" width="1" height="4" fill="#5D4037" />
<rect x="10" y="6" width="1" height="4" fill="#4E342E" />
<rect x="11" y="6" width="1" height="4" fill="#5D4037" />
<rect x="12" y="6" width="1" height="4" fill="#4E342E" />
<rect x="13" y="6" width="1" height="4" fill="#5D4037" />
<rect x="2" y="10" width="12" height="1" fill="#424242" />
<rect x="3" y="11" width="1" height="3" fill="#6D4C41" />
<rect x="4" y="11" width="1" height="3" fill="#5D4037" />
<rect x="5" y="11" width="1" height="3" fill="#4E342E" />
<rect x="6" y="11" width="1" height="3" fill="#5D4037" />
<rect x="7" y="11" width="1" height="3" fill="#4E342E" />
<rect x="8" y="11" width="1" height="3" fill="#5D4037" />
<rect x="9" y="11" width="1" height="3" fill="#4E342E" />
<rect x="10" y="11" width="1" height="3" fill="#5D4037" />
<rect x="11" y="11" width="1" height="3" fill="#4E342E" />
<rect x="12" y="11" width="1" height="3" fill="#5D4037" />
<rect x="4" y="14" width="8" height="1" fill="#424242" />
</svg>